<svg width="33" height="33" viewBox="0 0 33 33" fill="none" xmlns="http://www.w3.org/2000/svg">
<g opacity="0.3" clip-path="url(#clip0_1_167)">
<path d="M31.1667 25.8333C31.1667 26.5406 30.8857 27.2189 30.3856 27.719C29.8855 28.219 29.2072 28.5 28.5 28.5H4.49999C3.79275 28.5 3.11447 28.219 2.61438 27.719C2.11428 27.2189 1.83333 26.5406 1.83333 25.8333V11.1667C1.83333 10.4594 2.11428 9.78115 2.61438 9.28105C3.11447 8.78095 3.79275 8.5 4.49999 8.5H9.83333L12.5 4.5H20.5L23.1667 8.5H28.5C29.2072 8.5 29.8855 8.78095 30.3856 9.28105C30.8857 9.78115 31.1667 10.4594 31.1667 11.1667V25.8333Z" stroke="#1E1E1E" stroke-width="4" stroke-linecap="round" stroke-linejoin="round"/>
<path d="M16.5 23.1667C19.4455 23.1667 21.8333 20.7789 21.8333 17.8333C21.8333 14.8878 19.4455 12.5 16.5 12.5C13.5545 12.5 11.1667 14.8878 11.1667 17.8333C11.1667 20.7789 13.5545 23.1667 16.5 23.1667Z" stroke="#1E1E1E" stroke-width="4" stroke-linecap="round" stroke-linejoin="round"/>
</g>
<defs>
<clipPath id="clip0_1_167">
<rect width="32" height="32" fill="white" transform="translate(0.5 0.5)"/>
</clipPath>
</defs>
</svg>
