<svg width="361" height="62" viewBox="0 0 361 62" fill="none" xmlns="http://www.w3.org/2000/svg">
<mask id="path-1-inside-1_1_105" fill="white">
<path d="M0 5H361V41H0V5Z"/>
</mask>
<path d="M361 41V40H0V41V42H361V41Z" fill="black" fill-opacity="0.02" mask="url(#path-1-inside-1_1_105)"/>
<mask id="path-3-inside-2_1_105" fill="white">
<path d="M0 10H166V39H0V10Z"/>
</mask>
<path d="M0 10H166V39H0V10Z" fill="#1E1E1E" fill-opacity="0.05"/>
<path d="M166 10H164V39H166H168V10H166Z" fill="black" mask="url(#path-3-inside-2_1_105)"/>
<rect x="158" width="14" height="14" rx="7" fill="#191818"/>
<rect x="159" y="1" width="12" height="12" rx="6" fill="white"/>
<path d="M11.1492 23.454H10.4447C10.403 23.2513 10.3301 23.0733 10.2259 22.9199C10.1236 22.7665 9.99864 22.6377 9.85092 22.5335C9.70508 22.4275 9.54315 22.3479 9.36512 22.2949C9.18709 22.2419 9.00148 22.2153 8.8083 22.2153C8.45603 22.2153 8.1369 22.3044 7.85092 22.4824C7.56683 22.6604 7.3405 22.9227 7.17194 23.2693C7.00527 23.6159 6.92194 24.0411 6.92194 24.5449C6.92194 25.0487 7.00527 25.4739 7.17194 25.8205C7.3405 26.167 7.56683 26.4294 7.85092 26.6074C8.1369 26.7854 8.45603 26.8744 8.8083 26.8744C9.00148 26.8744 9.18709 26.8479 9.36512 26.7949C9.54315 26.7419 9.70508 26.6633 9.85092 26.5591C9.99864 26.453 10.1236 26.3233 10.2259 26.1699C10.3301 26.0146 10.403 25.8366 10.4447 25.6358H11.1492C11.0962 25.9331 10.9996 26.1992 10.8594 26.4341C10.7193 26.6689 10.545 26.8688 10.3367 27.0335C10.1284 27.1964 9.89448 27.3205 9.63501 27.4057C9.37743 27.4909 9.10186 27.5335 8.8083 27.5335C8.31209 27.5335 7.8708 27.4123 7.48444 27.1699C7.09808 26.9275 6.7941 26.5828 6.57251 26.1358C6.35092 25.6888 6.24012 25.1585 6.24012 24.5449C6.24012 23.9313 6.35092 23.4009 6.57251 22.954C6.7941 22.507 7.09808 22.1623 7.48444 21.9199C7.8708 21.6775 8.31209 21.5563 8.8083 21.5563C9.10186 21.5563 9.37743 21.5989 9.63501 21.6841C9.89448 21.7693 10.1284 21.8943 10.3367 22.0591C10.545 22.222 10.7193 22.4208 10.8594 22.6557C10.9996 22.8886 11.0962 23.1547 11.1492 23.454ZM13.9695 27.5449C13.5756 27.5449 13.2299 27.4511 12.9326 27.2636C12.6371 27.0761 12.4061 26.8138 12.2394 26.4767C12.0746 26.1396 11.9923 25.7456 11.9923 25.2949C11.9923 24.8403 12.0746 24.4436 12.2394 24.1045C12.4061 23.7655 12.6371 23.5023 12.9326 23.3148C13.2299 23.1273 13.5756 23.0335 13.9695 23.0335C14.3635 23.0335 14.7082 23.1273 15.0036 23.3148C15.301 23.5023 15.532 23.7655 15.6968 24.1045C15.8635 24.4436 15.9468 24.8403 15.9468 25.2949C15.9468 25.7456 15.8635 26.1396 15.6968 26.4767C15.532 26.8138 15.301 27.0761 15.0036 27.2636C14.7082 27.4511 14.3635 27.5449 13.9695 27.5449ZM13.9695 26.9426C14.2688 26.9426 14.515 26.8659 14.7082 26.7125C14.9013 26.5591 15.0443 26.3574 15.1371 26.1074C15.2299 25.8574 15.2763 25.5866 15.2763 25.2949C15.2763 25.0032 15.2299 24.7314 15.1371 24.4795C15.0443 24.2277 14.9013 24.0241 14.7082 23.8688C14.515 23.7134 14.2688 23.6358 13.9695 23.6358C13.6703 23.6358 13.4241 23.7134 13.2309 23.8688C13.0377 24.0241 12.8947 24.2277 12.8019 24.4795C12.7091 24.7314 12.6627 25.0032 12.6627 25.2949C12.6627 25.5866 12.7091 25.8574 12.8019 26.1074C12.8947 26.3574 13.0377 26.5591 13.2309 26.7125C13.4241 26.8659 13.6703 26.9426 13.9695 26.9426ZM17.6407 21.6358V27.454H16.9702V21.6358H17.6407ZM20.6414 27.5449C20.2475 27.5449 19.9018 27.4511 19.6045 27.2636C19.309 27.0761 19.078 26.8138 18.9113 26.4767C18.7465 26.1396 18.6641 25.7456 18.6641 25.2949C18.6641 24.8403 18.7465 24.4436 18.9113 24.1045C19.078 23.7655 19.309 23.5023 19.6045 23.3148C19.9018 23.1273 20.2475 23.0335 20.6414 23.0335C21.0353 23.0335 21.38 23.1273 21.6755 23.3148C21.9728 23.5023 22.2039 23.7655 22.3687 24.1045C22.5353 24.4436 22.6187 24.8403 22.6187 25.2949C22.6187 25.7456 22.5353 26.1396 22.3687 26.4767C22.2039 26.8138 21.9728 27.0761 21.6755 27.2636C21.38 27.4511 21.0353 27.5449 20.6414 27.5449ZM20.6414 26.9426C20.9406 26.9426 21.1869 26.8659 21.38 26.7125C21.5732 26.5591 21.7162 26.3574 21.809 26.1074C21.9018 25.8574 21.9482 25.5866 21.9482 25.2949C21.9482 25.0032 21.9018 24.7314 21.809 24.4795C21.7162 24.2277 21.5732 24.0241 21.38 23.8688C21.1869 23.7134 20.9406 23.6358 20.6414 23.6358C20.3422 23.6358 20.0959 23.7134 19.9028 23.8688C19.7096 24.0241 19.5666 24.2277 19.4738 24.4795C19.381 24.7314 19.3346 25.0032 19.3346 25.2949C19.3346 25.5866 19.381 25.8574 19.4738 26.1074C19.5666 26.3574 19.7096 26.5591 19.9028 26.7125C20.0959 26.8659 20.3422 26.9426 20.6414 26.9426ZM26.3921 25.6699V23.0903H27.0626V27.454H26.3921V26.7153H26.3467C26.2444 26.9369 26.0853 27.1254 25.8694 27.2807C25.6535 27.4341 25.3807 27.5108 25.0512 27.5108C24.7785 27.5108 24.536 27.4511 24.3239 27.3318C24.1118 27.2106 23.9451 27.0288 23.8239 26.7864C23.7027 26.542 23.6421 26.2343 23.6421 25.8631V23.0903H24.3126V25.8176C24.3126 26.1358 24.4016 26.3896 24.5796 26.579C24.7595 26.7684 24.9887 26.8631 25.2671 26.8631C25.4338 26.8631 25.6033 26.8205 25.7756 26.7352C25.9499 26.65 26.0957 26.5193 26.2131 26.3432C26.3325 26.167 26.3921 25.9426 26.3921 25.6699ZM28.2905 27.454V23.0903H28.9383V23.7494H28.9837C29.0633 23.5335 29.2072 23.3583 29.4155 23.2239C29.6239 23.0894 29.8587 23.0222 30.1201 23.0222C30.1693 23.0222 30.2309 23.0231 30.3048 23.025C30.3786 23.0269 30.4345 23.0297 30.4724 23.0335V23.7153C30.4496 23.7097 30.3976 23.7011 30.3161 23.6898C30.2366 23.6765 30.1523 23.6699 30.0633 23.6699C29.8512 23.6699 29.6618 23.7144 29.4951 23.8034C29.3303 23.8905 29.1996 24.0117 29.103 24.167C29.0083 24.3205 28.961 24.4956 28.961 24.6926V27.454H28.2905ZM35.4148 23.0903V23.6585H33.1535V23.0903H35.4148ZM33.8126 22.0449H34.483V26.204C34.483 26.3934 34.5105 26.5354 34.5654 26.6301C34.6222 26.7229 34.6942 26.7854 34.7813 26.8176C34.8703 26.8479 34.9641 26.8631 35.0626 26.8631C35.1364 26.8631 35.197 26.8593 35.2444 26.8517C35.2917 26.8422 35.3296 26.8347 35.358 26.829L35.4944 27.4313C35.4489 27.4483 35.3855 27.4653 35.304 27.4824C35.2226 27.5013 35.1194 27.5108 34.9944 27.5108C34.805 27.5108 34.6194 27.4701 34.4376 27.3886C34.2576 27.3072 34.108 27.1831 33.9887 27.0165C33.8713 26.8498 33.8126 26.6396 33.8126 26.3858V22.0449ZM36.4234 27.454V23.0903H37.0711V23.7494H37.1165C37.1961 23.5335 37.34 23.3583 37.5484 23.2239C37.7567 23.0894 37.9915 23.0222 38.2529 23.0222C38.3021 23.0222 38.3637 23.0231 38.4376 23.025C38.5114 23.0269 38.5673 23.0297 38.6052 23.0335V23.7153C38.5825 23.7097 38.5304 23.7011 38.4489 23.6898C38.3694 23.6765 38.2851 23.6699 38.1961 23.6699C37.984 23.6699 37.7946 23.7144 37.6279 23.8034C37.4631 23.8905 37.3325 24.0117 37.2359 24.167C37.1412 24.3205 37.0938 24.4956 37.0938 24.6926V27.454H36.4234ZM40.684 27.5563C40.4075 27.5563 40.1566 27.5042 39.9312 27.4C39.7058 27.2939 39.5268 27.1415 39.3942 26.9426C39.2617 26.7419 39.1954 26.4994 39.1954 26.2153C39.1954 25.9653 39.2446 25.7627 39.3431 25.6074C39.4416 25.4502 39.5732 25.3271 39.738 25.2381C39.9028 25.1491 40.0846 25.0828 40.2834 25.0392C40.4842 24.9938 40.6859 24.9578 40.8886 24.9313C41.1537 24.8972 41.3687 24.8716 41.5334 24.8545C41.7001 24.8356 41.8213 24.8044 41.8971 24.7608C41.9747 24.7172 42.0136 24.6415 42.0136 24.5335V24.5108C42.0136 24.2305 41.9369 24.0127 41.7834 23.8574C41.6319 23.7021 41.4018 23.6244 41.0931 23.6244C40.773 23.6244 40.5221 23.6945 40.3403 23.8347C40.1584 23.9748 40.0306 24.1244 39.9567 24.2835L39.3204 24.0563C39.434 23.7911 39.5855 23.5847 39.7749 23.4369C39.9662 23.2873 40.1745 23.1831 40.3999 23.1244C40.6272 23.0638 40.8507 23.0335 41.0704 23.0335C41.2105 23.0335 41.3715 23.0506 41.5533 23.0847C41.737 23.1169 41.9141 23.1841 42.0846 23.2864C42.2569 23.3886 42.3999 23.543 42.5136 23.7494C42.6272 23.9559 42.684 24.2324 42.684 24.579V27.454H42.0136V26.8631H41.9795C41.934 26.9578 41.8583 27.0591 41.7522 27.167C41.6461 27.275 41.505 27.3669 41.3289 27.4426C41.1528 27.5184 40.9378 27.5563 40.684 27.5563ZM40.7863 26.954C41.0514 26.954 41.2749 26.9019 41.4567 26.7977C41.6405 26.6936 41.7787 26.5591 41.8715 26.3943C41.9662 26.2295 42.0136 26.0563 42.0136 25.8744V25.2608C41.9851 25.2949 41.9226 25.3261 41.8261 25.3545C41.7314 25.3811 41.6215 25.4047 41.4965 25.4256C41.3734 25.4445 41.2531 25.4616 41.1357 25.4767C41.0202 25.49 40.9264 25.5013 40.8545 25.5108C40.6802 25.5335 40.5173 25.5705 40.3658 25.6216C40.2162 25.6708 40.095 25.7456 40.0022 25.846C39.9113 25.9445 39.8658 26.079 39.8658 26.2494C39.8658 26.4824 39.952 26.6585 40.1244 26.7778C40.2986 26.8953 40.5192 26.954 40.7863 26.954ZM44.5782 24.829V27.454H43.9077V23.0903H44.5555V23.7722H44.6123C44.7146 23.5506 44.8699 23.3725 45.0782 23.2381C45.2865 23.1017 45.5555 23.0335 45.885 23.0335C46.1805 23.0335 46.439 23.0941 46.6606 23.2153C46.8822 23.3347 47.0545 23.5165 47.1776 23.7608C47.3007 24.0032 47.3623 24.31 47.3623 24.6813V27.454H46.6918V24.7267C46.6918 24.3839 46.6028 24.1169 46.4248 23.9256C46.2467 23.7324 46.0024 23.6358 45.6918 23.6358C45.4778 23.6358 45.2865 23.6822 45.118 23.775C44.9513 23.8678 44.8197 24.0032 44.7231 24.1813C44.6265 24.3593 44.5782 24.5752 44.5782 24.829ZM51.6783 24.0676L51.0761 24.2381C51.0382 24.1377 50.9823 24.0402 50.9084 23.9455C50.8365 23.8489 50.738 23.7693 50.613 23.7068C50.488 23.6443 50.328 23.6131 50.1329 23.6131C49.8658 23.6131 49.6433 23.6746 49.4653 23.7977C49.2891 23.9189 49.2011 24.0733 49.2011 24.2608C49.2011 24.4275 49.2617 24.5591 49.3829 24.6557C49.5041 24.7523 49.6935 24.8328 49.9511 24.8972L50.5988 25.0563C50.9889 25.1509 51.2797 25.2958 51.4709 25.4909C51.6622 25.6841 51.7579 25.9331 51.7579 26.2381C51.7579 26.4881 51.6859 26.7116 51.542 26.9085C51.3999 27.1055 51.2011 27.2608 50.9454 27.3744C50.6897 27.4881 50.3923 27.5449 50.0533 27.5449C49.6083 27.5449 49.2399 27.4483 48.9482 27.2551C48.6566 27.0619 48.4719 26.7797 48.3942 26.4085L49.0306 26.2494C49.0912 26.4843 49.2058 26.6604 49.3744 26.7778C49.5448 26.8953 49.7673 26.954 50.042 26.954C50.3545 26.954 50.6026 26.8877 50.7863 26.7551C50.9719 26.6206 51.0647 26.4597 51.0647 26.2722C51.0647 26.1206 51.0117 25.9938 50.9056 25.8915C50.7995 25.7873 50.6367 25.7097 50.417 25.6585L49.6897 25.4881C49.2901 25.3934 48.9965 25.2466 48.809 25.0477C48.6234 24.847 48.5306 24.596 48.5306 24.2949C48.5306 24.0487 48.5997 23.8309 48.738 23.6415C48.8781 23.4521 49.0685 23.3034 49.309 23.1955C49.5514 23.0875 49.8261 23.0335 50.1329 23.0335C50.5647 23.0335 50.9037 23.1282 51.1499 23.3176C51.398 23.507 51.5742 23.757 51.6783 24.0676ZM52.7671 27.454V23.0903H53.4376V27.454H52.7671ZM53.108 22.3631C52.9773 22.3631 52.8646 22.3186 52.77 22.2295C52.6771 22.1405 52.6307 22.0335 52.6307 21.9085C52.6307 21.7835 52.6771 21.6765 52.77 21.5875C52.8646 21.4985 52.9773 21.454 53.108 21.454C53.2387 21.454 53.3504 21.4985 53.4432 21.5875C53.5379 21.6765 53.5853 21.7835 53.5853 21.9085C53.5853 22.0335 53.5379 22.1405 53.4432 22.2295C53.3504 22.3186 53.2387 22.3631 53.108 22.3631ZM56.5633 23.0903V23.6585H54.3019V23.0903H56.5633ZM54.961 22.0449H55.6315V26.204C55.6315 26.3934 55.6589 26.5354 55.7138 26.6301C55.7707 26.7229 55.8426 26.7854 55.9298 26.8176C56.0188 26.8479 56.1125 26.8631 56.211 26.8631C56.2849 26.8631 56.3455 26.8593 56.3928 26.8517C56.4402 26.8422 56.478 26.8347 56.5065 26.829L56.6428 27.4313C56.5974 27.4483 56.5339 27.4653 56.4525 27.4824C56.371 27.5013 56.2678 27.5108 56.1428 27.5108C55.9534 27.5108 55.7678 27.4701 55.586 27.3886C55.4061 27.3072 55.2565 27.1831 55.1371 27.0165C55.0197 26.8498 54.961 26.6396 54.961 26.3858V22.0449ZM57.5718 27.454V23.0903H58.2423V27.454H57.5718ZM57.9127 22.3631C57.782 22.3631 57.6693 22.3186 57.5746 22.2295C57.4818 22.1405 57.4354 22.0335 57.4354 21.9085C57.4354 21.7835 57.4818 21.6765 57.5746 21.5875C57.6693 21.4985 57.782 21.454 57.9127 21.454C58.0434 21.454 58.1551 21.4985 58.2479 21.5875C58.3426 21.6765 58.39 21.7835 58.39 21.9085C58.39 22.0335 58.3426 22.1405 58.2479 22.2295C58.1551 22.3186 58.0434 22.3631 57.9127 22.3631ZM61.243 27.5449C60.849 27.5449 60.5034 27.4511 60.206 27.2636C59.9106 27.0761 59.6795 26.8138 59.5128 26.4767C59.3481 26.1396 59.2657 25.7456 59.2657 25.2949C59.2657 24.8403 59.3481 24.4436 59.5128 24.1045C59.6795 23.7655 59.9106 23.5023 60.206 23.3148C60.5034 23.1273 60.849 23.0335 61.243 23.0335C61.6369 23.0335 61.9816 23.1273 62.2771 23.3148C62.5744 23.5023 62.8055 23.7655 62.9702 24.1045C63.1369 24.4436 63.2202 24.8403 63.2202 25.2949C63.2202 25.7456 63.1369 26.1396 62.9702 26.4767C62.8055 26.8138 62.5744 27.0761 62.2771 27.2636C61.9816 27.4511 61.6369 27.5449 61.243 27.5449ZM61.243 26.9426C61.5422 26.9426 61.7884 26.8659 61.9816 26.7125C62.1748 26.5591 62.3178 26.3574 62.4106 26.1074C62.5034 25.8574 62.5498 25.5866 62.5498 25.2949C62.5498 25.0032 62.5034 24.7314 62.4106 24.4795C62.3178 24.2277 62.1748 24.0241 61.9816 23.8688C61.7884 23.7134 61.5422 23.6358 61.243 23.6358C60.9437 23.6358 60.6975 23.7134 60.5043 23.8688C60.3111 24.0241 60.1682 24.2277 60.0753 24.4795C59.9825 24.7314 59.9361 25.0032 59.9361 25.2949C59.9361 25.5866 59.9825 25.8574 60.0753 26.1074C60.1682 26.3574 60.3111 26.5591 60.5043 26.7125C60.6975 26.8659 60.9437 26.9426 61.243 26.9426ZM64.9141 24.829V27.454H64.2437V23.0903H64.8914V23.7722H64.9482C65.0505 23.5506 65.2058 23.3725 65.4141 23.2381C65.6225 23.1017 65.8914 23.0335 66.2209 23.0335C66.5164 23.0335 66.7749 23.0941 66.9965 23.2153C67.2181 23.3347 67.3905 23.5165 67.5136 23.7608C67.6367 24.0032 67.6982 24.31 67.6982 24.6813V27.454H67.0278V24.7267C67.0278 24.3839 66.9387 24.1169 66.7607 23.9256C66.5827 23.7324 66.3384 23.6358 66.0278 23.6358C65.8137 23.6358 65.6225 23.6822 65.4539 23.775C65.2872 23.8678 65.1556 24.0032 65.059 24.1813C64.9624 24.3593 64.9141 24.5752 64.9141 24.829ZM73.0711 23.0903V23.6585H70.8097V23.0903H73.0711ZM71.4688 22.0449H72.1393V26.204C72.1393 26.3934 72.1667 26.5354 72.2217 26.6301C72.2785 26.7229 72.3504 26.7854 72.4376 26.8176C72.5266 26.8479 72.6203 26.8631 72.7188 26.8631C72.7927 26.8631 72.8533 26.8593 72.9006 26.8517C72.948 26.8422 72.9859 26.8347 73.0143 26.829L73.1506 27.4313C73.1052 27.4483 73.0417 27.4653 72.9603 27.4824C72.8789 27.5013 72.7756 27.5108 72.6506 27.5108C72.4612 27.5108 72.2756 27.4701 72.0938 27.3886C71.9139 27.3072 71.7643 27.1831 71.645 27.0165C71.5275 26.8498 71.4688 26.6396 71.4688 26.3858V22.0449ZM75.8055 27.5449C75.4115 27.5449 75.0659 27.4511 74.7685 27.2636C74.4731 27.0761 74.242 26.8138 74.0753 26.4767C73.9106 26.1396 73.8282 25.7456 73.8282 25.2949C73.8282 24.8403 73.9106 24.4436 74.0753 24.1045C74.242 23.7655 74.4731 23.5023 74.7685 23.3148C75.0659 23.1273 75.4115 23.0335 75.8055 23.0335C76.1994 23.0335 76.5441 23.1273 76.8396 23.3148C77.1369 23.5023 77.368 23.7655 77.5327 24.1045C77.6994 24.4436 77.7827 24.8403 77.7827 25.2949C77.7827 25.7456 77.6994 26.1396 77.5327 26.4767C77.368 26.8138 77.1369 27.0761 76.8396 27.2636C76.5441 27.4511 76.1994 27.5449 75.8055 27.5449ZM75.8055 26.9426C76.1047 26.9426 76.3509 26.8659 76.5441 26.7125C76.7373 26.5591 76.8803 26.3574 76.9731 26.1074C77.0659 25.8574 77.1123 25.5866 77.1123 25.2949C77.1123 25.0032 77.0659 24.7314 76.9731 24.4795C76.8803 24.2277 76.7373 24.0241 76.5441 23.8688C76.3509 23.7134 76.1047 23.6358 75.8055 23.6358C75.5062 23.6358 75.26 23.7134 75.0668 23.8688C74.8736 24.0241 74.7307 24.2277 74.6378 24.4795C74.545 24.7314 74.4986 25.0032 74.4986 25.2949C74.4986 25.5866 74.545 25.8574 74.6378 26.1074C74.7307 26.3574 74.8736 26.5591 75.0668 26.7125C75.26 26.8659 75.5062 26.9426 75.8055 26.9426ZM84.1471 24.0676L83.5448 24.2381C83.5069 24.1377 83.4511 24.0402 83.3772 23.9455C83.3052 23.8489 83.2067 23.7693 83.0817 23.7068C82.9567 23.6443 82.7967 23.6131 82.6016 23.6131C82.3346 23.6131 82.112 23.6746 81.934 23.7977C81.7579 23.9189 81.6698 24.0733 81.6698 24.2608C81.6698 24.4275 81.7304 24.5591 81.8516 24.6557C81.9728 24.7523 82.1622 24.8328 82.4198 24.8972L83.0675 25.0563C83.4577 25.1509 83.7484 25.2958 83.9397 25.4909C84.131 25.6841 84.2266 25.9331 84.2266 26.2381C84.2266 26.4881 84.1547 26.7116 84.0107 26.9085C83.8687 27.1055 83.6698 27.2608 83.4141 27.3744C83.1584 27.4881 82.8611 27.5449 82.5221 27.5449C82.077 27.5449 81.7086 27.4483 81.417 27.2551C81.1253 27.0619 80.9406 26.7797 80.863 26.4085L81.4994 26.2494C81.56 26.4843 81.6745 26.6604 81.8431 26.7778C82.0136 26.8953 82.2361 26.954 82.5107 26.954C82.8232 26.954 83.0713 26.8877 83.255 26.7551C83.4406 26.6206 83.5334 26.4597 83.5334 26.2722C83.5334 26.1206 83.4804 25.9938 83.3744 25.8915C83.2683 25.7873 83.1054 25.7097 82.8857 25.6585L82.1584 25.4881C81.7588 25.3934 81.4653 25.2466 81.2778 25.0477C81.0922 24.847 80.9994 24.596 80.9994 24.2949C80.9994 24.0487 81.0685 23.8309 81.2067 23.6415C81.3469 23.4521 81.5372 23.3034 81.7778 23.1955C82.0202 23.0875 82.2948 23.0335 82.6016 23.0335C83.0334 23.0335 83.3725 23.1282 83.6187 23.3176C83.8668 23.507 84.0429 23.757 84.1471 24.0676ZM85.9063 24.829V27.454H85.2359V21.6358H85.9063V23.7722H85.9631C86.0654 23.5468 86.2188 23.3678 86.4234 23.2352C86.6298 23.1008 86.9044 23.0335 87.2472 23.0335C87.5446 23.0335 87.805 23.0932 88.0285 23.2125C88.252 23.3299 88.4253 23.5108 88.5484 23.7551C88.6734 23.9975 88.7359 24.3063 88.7359 24.6813V27.454H88.0654V24.7267C88.0654 24.3801 87.9754 24.1121 87.7955 23.9227C87.6175 23.7314 87.3703 23.6358 87.054 23.6358C86.8343 23.6358 86.6374 23.6822 86.4631 23.775C86.2908 23.8678 86.1544 24.0032 86.054 24.1813C85.9556 24.3593 85.9063 24.5752 85.9063 24.829ZM91.7351 27.5449C91.3412 27.5449 90.9956 27.4511 90.6982 27.2636C90.4028 27.0761 90.1717 26.8138 90.005 26.4767C89.8403 26.1396 89.7579 25.7456 89.7579 25.2949C89.7579 24.8403 89.8403 24.4436 90.005 24.1045C90.1717 23.7655 90.4028 23.5023 90.6982 23.3148C90.9956 23.1273 91.3412 23.0335 91.7351 23.0335C92.1291 23.0335 92.4738 23.1273 92.7692 23.3148C93.0666 23.5023 93.2976 23.7655 93.4624 24.1045C93.6291 24.4436 93.7124 24.8403 93.7124 25.2949C93.7124 25.7456 93.6291 26.1396 93.4624 26.4767C93.2976 26.8138 93.0666 27.0761 92.7692 27.2636C92.4738 27.4511 92.1291 27.5449 91.7351 27.5449ZM91.7351 26.9426C92.0344 26.9426 92.2806 26.8659 92.4738 26.7125C92.667 26.5591 92.81 26.3574 92.9028 26.1074C92.9956 25.8574 93.042 25.5866 93.042 25.2949C93.042 25.0032 92.9956 24.7314 92.9028 24.4795C92.81 24.2277 92.667 24.0241 92.4738 23.8688C92.2806 23.7134 92.0344 23.6358 91.7351 23.6358C91.4359 23.6358 91.1897 23.7134 90.9965 23.8688C90.8033 24.0241 90.6603 24.2277 90.5675 24.4795C90.4747 24.7314 90.4283 25.0032 90.4283 25.2949C90.4283 25.5866 90.4747 25.8574 90.5675 26.1074C90.6603 26.3574 90.8033 26.5591 90.9965 26.7125C91.1897 26.8659 91.4359 26.9426 91.7351 26.9426ZM95.5761 27.454L94.2465 23.0903H94.9511L95.8942 26.4313H95.9397L96.8715 23.0903H97.5874L98.5079 26.4199H98.5533L99.4965 23.0903H100.201L98.8715 27.454H98.2124L97.2579 24.1017H97.1897L96.2351 27.454H95.5761ZM104.008 21.6358V27.454H103.337V21.6358H104.008ZM107.065 27.5449C106.645 27.5449 106.282 27.4521 105.977 27.2665C105.674 27.079 105.44 26.8176 105.276 26.4824C105.113 26.1453 105.031 25.7532 105.031 25.3063C105.031 24.8593 105.113 24.4653 105.276 24.1244C105.44 23.7816 105.67 23.5146 105.963 23.3233C106.259 23.1301 106.603 23.0335 106.997 23.0335C107.224 23.0335 107.449 23.0714 107.671 23.1472C107.892 23.2229 108.094 23.346 108.276 23.5165C108.457 23.685 108.602 23.9085 108.71 24.1869C108.818 24.4653 108.872 24.8081 108.872 25.2153V25.4994H105.509V24.9199H108.19C108.19 24.6737 108.141 24.454 108.043 24.2608C107.946 24.0676 107.808 23.9152 107.628 23.8034C107.45 23.6917 107.24 23.6358 106.997 23.6358C106.73 23.6358 106.499 23.7021 106.304 23.8347C106.111 23.9653 105.962 24.1358 105.858 24.346C105.754 24.5563 105.702 24.7816 105.702 25.0222V25.4085C105.702 25.7381 105.759 26.0174 105.872 26.2466C105.988 26.4739 106.148 26.6472 106.352 26.7665C106.557 26.8839 106.795 26.9426 107.065 26.9426C107.242 26.9426 107.401 26.918 107.543 26.8688C107.687 26.8176 107.811 26.7419 107.915 26.6415C108.019 26.5392 108.099 26.4123 108.156 26.2608L108.804 26.4426C108.736 26.6623 108.621 26.8555 108.46 27.0222C108.299 27.1869 108.1 27.3157 107.864 27.4085C107.627 27.4994 107.361 27.5449 107.065 27.5449ZM113.327 23.0903L111.714 27.454H111.032L109.418 23.0903H110.146L111.35 26.5676H111.396L112.6 23.0903H113.327ZM115.886 27.5449C115.465 27.5449 115.103 27.4521 114.798 27.2665C114.495 27.079 114.261 26.8176 114.096 26.4824C113.933 26.1453 113.852 25.7532 113.852 25.3063C113.852 24.8593 113.933 24.4653 114.096 24.1244C114.261 23.7816 114.49 23.5146 114.783 23.3233C115.079 23.1301 115.424 23.0335 115.818 23.0335C116.045 23.0335 116.269 23.0714 116.491 23.1472C116.712 23.2229 116.914 23.346 117.096 23.5165C117.278 23.685 117.423 23.9085 117.531 24.1869C117.639 24.4653 117.693 24.8081 117.693 25.2153V25.4994H114.329V24.9199H117.011C117.011 24.6737 116.961 24.454 116.863 24.2608C116.766 24.0676 116.628 23.9152 116.448 23.8034C116.27 23.6917 116.06 23.6358 115.818 23.6358C115.55 23.6358 115.319 23.7021 115.124 23.8347C114.931 23.9653 114.782 24.1358 114.678 24.346C114.574 24.5563 114.522 24.7816 114.522 25.0222V25.4085C114.522 25.7381 114.579 26.0174 114.693 26.2466C114.808 26.4739 114.968 26.6472 115.173 26.7665C115.377 26.8839 115.615 26.9426 115.886 26.9426C116.062 26.9426 116.221 26.918 116.363 26.8688C116.507 26.8176 116.631 26.7419 116.735 26.6415C116.839 26.5392 116.92 26.4123 116.977 26.2608L117.624 26.4426C117.556 26.6623 117.442 26.8555 117.281 27.0222C117.12 27.1869 116.921 27.3157 116.684 27.4085C116.447 27.4994 116.181 27.5449 115.886 27.5449ZM119.383 21.6358V27.454H118.712V21.6358H119.383ZM122.861 27.454V23.0903H123.531V27.454H122.861ZM123.202 22.3631C123.071 22.3631 122.958 22.3186 122.864 22.2295C122.771 22.1405 122.724 22.0335 122.724 21.9085C122.724 21.7835 122.771 21.6765 122.864 21.5875C122.958 21.4985 123.071 21.454 123.202 21.454C123.332 21.454 123.444 21.4985 123.537 21.5875C123.632 21.6765 123.679 21.7835 123.679 21.9085C123.679 22.0335 123.632 22.1405 123.537 22.2295C123.444 22.3186 123.332 22.3631 123.202 22.3631ZM125.43 24.829V27.454H124.759V23.0903H125.407V23.7722H125.464C125.566 23.5506 125.721 23.3725 125.93 23.2381C126.138 23.1017 126.407 23.0335 126.737 23.0335C127.032 23.0335 127.291 23.0941 127.512 23.2153C127.734 23.3347 127.906 23.5165 128.029 23.7608C128.152 24.0032 128.214 24.31 128.214 24.6813V27.454H127.543V24.7267C127.543 24.3839 127.454 24.1169 127.276 23.9256C127.098 23.7324 126.854 23.6358 126.543 23.6358C126.329 23.6358 126.138 23.6822 125.97 23.775C125.803 23.8678 125.671 24.0032 125.575 24.1813C125.478 24.3593 125.43 24.5752 125.43 24.829ZM131.337 23.0903V23.6585H129.075V23.0903H131.337ZM129.734 22.0449H130.405V26.204C130.405 26.3934 130.432 26.5354 130.487 26.6301C130.544 26.7229 130.616 26.7854 130.703 26.8176C130.792 26.8479 130.886 26.8631 130.984 26.8631C131.058 26.8631 131.119 26.8593 131.166 26.8517C131.214 26.8422 131.251 26.8347 131.28 26.829L131.416 27.4313C131.371 27.4483 131.307 27.4653 131.226 27.4824C131.144 27.5013 131.041 27.5108 130.916 27.5108C130.727 27.5108 130.541 27.4701 130.359 27.3886C130.18 27.3072 130.03 27.1831 129.911 27.0165C129.793 26.8498 129.734 26.6396 129.734 26.3858V22.0449ZM134.128 27.5449C133.707 27.5449 133.345 27.4521 133.04 27.2665C132.737 27.079 132.503 26.8176 132.338 26.4824C132.175 26.1453 132.094 25.7532 132.094 25.3063C132.094 24.8593 132.175 24.4653 132.338 24.1244C132.503 23.7816 132.732 23.5146 133.026 23.3233C133.321 23.1301 133.666 23.0335 134.06 23.0335C134.287 23.0335 134.511 23.0714 134.733 23.1472C134.955 23.2229 135.156 23.346 135.338 23.5165C135.52 23.685 135.665 23.9085 135.773 24.1869C135.881 24.4653 135.935 24.8081 135.935 25.2153V25.4994H132.571V24.9199H135.253C135.253 24.6737 135.204 24.454 135.105 24.2608C135.009 24.0676 134.87 23.9152 134.69 23.8034C134.512 23.6917 134.302 23.6358 134.06 23.6358C133.793 23.6358 133.562 23.7021 133.367 23.8347C133.173 23.9653 133.025 24.1358 132.921 24.346C132.816 24.5563 132.764 24.7816 132.764 25.0222V25.4085C132.764 25.7381 132.821 26.0174 132.935 26.2466C133.05 26.4739 133.21 26.6472 133.415 26.7665C133.619 26.8839 133.857 26.9426 134.128 26.9426C134.304 26.9426 134.463 26.918 134.605 26.8688C134.749 26.8176 134.873 26.7419 134.977 26.6415C135.082 26.5392 135.162 26.4123 135.219 26.2608L135.867 26.4426C135.798 26.6623 135.684 26.8555 135.523 27.0222C135.362 27.1869 135.163 27.3157 134.926 27.4085C134.689 27.4994 134.423 27.5449 134.128 27.5449ZM137.625 24.829V27.454H136.955V23.0903H137.602V23.7722H137.659C137.761 23.5506 137.917 23.3725 138.125 23.2381C138.333 23.1017 138.602 23.0335 138.932 23.0335C139.227 23.0335 139.486 23.0941 139.707 23.2153C139.929 23.3347 140.101 23.5165 140.224 23.7608C140.348 24.0032 140.409 24.31 140.409 24.6813V27.454H139.739V24.7267C139.739 24.3839 139.65 24.1169 139.472 23.9256C139.294 23.7324 139.049 23.6358 138.739 23.6358C138.525 23.6358 138.333 23.6822 138.165 23.775C137.998 23.8678 137.867 24.0032 137.77 24.1813C137.673 24.3593 137.625 24.5752 137.625 24.829ZM144.725 24.0676L144.123 24.2381C144.085 24.1377 144.029 24.0402 143.955 23.9455C143.883 23.8489 143.785 23.7693 143.66 23.7068C143.535 23.6443 143.375 23.6131 143.18 23.6131C142.913 23.6131 142.69 23.6746 142.512 23.7977C142.336 23.9189 142.248 24.0733 142.248 24.2608C142.248 24.4275 142.309 24.5591 142.43 24.6557C142.551 24.7523 142.74 24.8328 142.998 24.8972L143.646 25.0563C144.036 25.1509 144.327 25.2958 144.518 25.4909C144.709 25.6841 144.805 25.9331 144.805 26.2381C144.805 26.4881 144.733 26.7116 144.589 26.9085C144.447 27.1055 144.248 27.2608 143.992 27.3744C143.737 27.4881 143.439 27.5449 143.1 27.5449C142.655 27.5449 142.287 27.4483 141.995 27.2551C141.703 27.0619 141.519 26.7797 141.441 26.4085L142.077 26.2494C142.138 26.4843 142.253 26.6604 142.421 26.7778C142.592 26.8953 142.814 26.954 143.089 26.954C143.401 26.954 143.649 26.8877 143.833 26.7551C144.019 26.6206 144.112 26.4597 144.112 26.2722C144.112 26.1206 144.059 25.9938 143.952 25.8915C143.846 25.7873 143.684 25.7097 143.464 25.6585L142.737 25.4881C142.337 25.3934 142.043 25.2466 141.856 25.0477C141.67 24.847 141.577 24.596 141.577 24.2949C141.577 24.0487 141.647 23.8309 141.785 23.6415C141.925 23.4521 142.115 23.3034 142.356 23.1955C142.598 23.0875 142.873 23.0335 143.18 23.0335C143.612 23.0335 143.951 23.1282 144.197 23.3176C144.445 23.507 144.621 23.757 144.725 24.0676ZM145.814 27.454V23.0903H146.484V27.454H145.814ZM146.155 22.3631C146.024 22.3631 145.912 22.3186 145.817 22.2295C145.724 22.1405 145.678 22.0335 145.678 21.9085C145.678 21.7835 145.724 21.6765 145.817 21.5875C145.912 21.4985 146.024 21.454 146.155 21.454C146.286 21.454 146.397 21.4985 146.49 21.5875C146.585 21.6765 146.632 21.7835 146.632 21.9085C146.632 22.0335 146.585 22.1405 146.49 22.2295C146.397 22.3186 146.286 22.3631 146.155 22.3631ZM149.61 23.0903V23.6585H147.349V23.0903H149.61ZM148.008 22.0449H148.678V26.204C148.678 26.3934 148.706 26.5354 148.761 26.6301C148.818 26.7229 148.89 26.7854 148.977 26.8176C149.066 26.8479 149.159 26.8631 149.258 26.8631C149.332 26.8631 149.392 26.8593 149.44 26.8517C149.487 26.8422 149.525 26.8347 149.553 26.829L149.69 27.4313C149.644 27.4483 149.581 27.4653 149.499 27.4824C149.418 27.5013 149.315 27.5108 149.19 27.5108C149 27.5108 148.815 27.4701 148.633 27.3886C148.453 27.3072 148.303 27.1831 148.184 27.0165C148.067 26.8498 148.008 26.6396 148.008 26.3858V22.0449ZM151.05 29.0903C150.937 29.0903 150.836 29.0809 150.747 29.0619C150.657 29.0449 150.596 29.0278 150.562 29.0108L150.732 28.4199C150.895 28.4616 151.039 28.4767 151.164 28.4653C151.289 28.454 151.4 28.3981 151.497 28.2977C151.595 28.1992 151.685 28.0392 151.766 27.8176L151.891 27.4767L150.278 23.0903H151.005L152.21 26.5676H152.255L153.46 23.0903H154.187L152.335 28.0903C152.251 28.3157 152.148 28.5023 152.025 28.65C151.902 28.7996 151.759 28.9104 151.596 28.9824C151.435 29.0544 151.253 29.0903 151.05 29.0903Z" fill="black"/>
<rect width="361" height="2" transform="translate(0 39)" fill="black" fill-opacity="0.1"/>
<rect x="10" y="37" width="6" height="6" rx="3" fill="black"/>
<rect x="86" y="37" width="6" height="6" rx="3" fill="black"/>
<rect x="162" y="38" width="6" height="6" rx="3" fill="black"/>
<rect x="244" y="37" width="6" height="6" rx="3" fill="black"/>
<rect x="334" y="37" width="6" height="6" rx="3" fill="black"/>
<path d="M0.912 59V50.6H6.108V51.428H1.92V54.356H5.748V55.172H1.92V58.172H6.108V59H0.912ZM9.62859 59.144C9.14059 59.144 8.73259 59.056 8.40459 58.88C8.08459 58.704 7.84459 58.472 7.68459 58.184C7.52459 57.896 7.44459 57.58 7.44459 57.236C7.44459 56.828 7.54859 56.48 7.75659 56.192C7.97259 55.904 8.27259 55.688 8.65659 55.544C9.04059 55.392 9.49259 55.316 10.0126 55.316H11.5966C11.5966 54.924 11.5446 54.6 11.4406 54.344C11.3366 54.08 11.1726 53.884 10.9486 53.756C10.7326 53.62 10.4566 53.552 10.1206 53.552C9.74459 53.552 9.42059 53.648 9.14859 53.84C8.87659 54.024 8.70859 54.3 8.64459 54.668H7.61259C7.66059 54.244 7.80459 53.888 8.04459 53.6C8.28459 53.304 8.58859 53.08 8.95659 52.928C9.32459 52.776 9.71259 52.7 10.1206 52.7C10.6806 52.7 11.1446 52.804 11.5126 53.012C11.8806 53.212 12.1526 53.496 12.3286 53.864C12.5126 54.224 12.6046 54.652 12.6046 55.148V59H11.7046L11.6446 57.92C11.5646 58.088 11.4606 58.248 11.3326 58.4C11.2126 58.544 11.0686 58.672 10.9006 58.784C10.7406 58.896 10.5526 58.984 10.3366 59.048C10.1206 59.112 9.88459 59.144 9.62859 59.144ZM9.77259 58.292C10.0446 58.292 10.2926 58.232 10.5166 58.112C10.7486 57.992 10.9446 57.832 11.1046 57.632C11.2646 57.432 11.3846 57.208 11.4646 56.96C11.5526 56.704 11.5966 56.44 11.5966 56.168V56.096H10.0966C9.71259 56.096 9.40059 56.144 9.16059 56.24C8.92859 56.328 8.76059 56.456 8.65659 56.624C8.55259 56.792 8.50059 56.98 8.50059 57.188C8.50059 57.412 8.54859 57.608 8.64459 57.776C8.74059 57.936 8.88459 58.064 9.07659 58.16C9.26859 58.248 9.50059 58.292 9.77259 58.292ZM16.4911 59.144C15.9631 59.144 15.5111 59.06 15.1351 58.892C14.7671 58.724 14.4791 58.488 14.2711 58.184C14.0631 57.88 13.9351 57.524 13.8871 57.116H14.9191C14.9591 57.324 15.0391 57.52 15.1591 57.704C15.2871 57.88 15.4591 58.024 15.6751 58.136C15.8991 58.24 16.1751 58.292 16.5031 58.292C16.7831 58.292 17.0151 58.252 17.1991 58.172C17.3911 58.084 17.5311 57.968 17.6191 57.824C17.7151 57.672 17.7631 57.508 17.7631 57.332C17.7631 57.076 17.7031 56.88 17.5831 56.744C17.4711 56.608 17.3031 56.504 17.0791 56.432C16.8631 56.352 16.5951 56.288 16.2751 56.24C15.9711 56.192 15.6871 56.128 15.4231 56.048C15.1671 55.96 14.9391 55.848 14.7391 55.712C14.5471 55.576 14.3951 55.408 14.2831 55.208C14.1791 55 14.1271 54.752 14.1271 54.464C14.1271 54.12 14.2151 53.816 14.3911 53.552C14.5751 53.288 14.8311 53.08 15.1591 52.928C15.4951 52.776 15.8911 52.7 16.3471 52.7C17.0031 52.7 17.5311 52.856 17.9311 53.168C18.3311 53.48 18.5671 53.928 18.6391 54.512H17.6431C17.6031 54.216 17.4671 53.984 17.2351 53.816C17.0111 53.64 16.7111 53.552 16.3351 53.552C15.9431 53.552 15.6471 53.628 15.4471 53.78C15.2471 53.932 15.1471 54.132 15.1471 54.38C15.1471 54.556 15.1951 54.712 15.2911 54.848C15.3951 54.976 15.5551 55.088 15.7711 55.184C15.9951 55.272 16.2751 55.344 16.6111 55.4C17.0351 55.464 17.4111 55.556 17.7391 55.676C18.0671 55.796 18.3271 55.98 18.5191 56.228C18.7111 56.468 18.8031 56.808 18.7951 57.248C18.8031 57.632 18.7111 57.968 18.5191 58.256C18.3271 58.544 18.0591 58.764 17.7151 58.916C17.3711 59.068 16.9631 59.144 16.4911 59.144ZM20.6959 61.64L22.1479 58.328H21.7999L19.4359 52.844H20.5279L22.4959 57.56L24.5479 52.844H25.5919L21.7399 61.64H20.6959Z" fill="black"/>
<path d="M78.912 59V50.6H80.088L83.004 56.492L85.92 50.6H87.108V59H86.1V52.412L83.388 57.848H82.632L79.92 52.436V59H78.912ZM88.9675 59V52.844H89.9755V59H88.9675ZM89.4715 51.596C89.2715 51.596 89.1035 51.532 88.9675 51.404C88.8395 51.268 88.7755 51.1 88.7755 50.9C88.7755 50.7 88.8395 50.54 88.9675 50.42C89.1035 50.292 89.2715 50.228 89.4715 50.228C89.6635 50.228 89.8275 50.292 89.9635 50.42C90.0995 50.54 90.1675 50.7 90.1675 50.9C90.1675 51.1 90.0995 51.268 89.9635 51.404C89.8275 51.532 89.6635 51.596 89.4715 51.596ZM91.7423 59V50.36H92.7503V59H91.7423ZM97.0779 59.144C96.5019 59.144 95.9939 59.004 95.5539 58.724C95.1219 58.444 94.7819 58.06 94.5339 57.572C94.2939 57.084 94.1739 56.532 94.1739 55.916C94.1739 55.292 94.2939 54.74 94.5339 54.26C94.7819 53.78 95.1219 53.4 95.5539 53.12C95.9939 52.84 96.5059 52.7 97.0899 52.7C97.5779 52.7 98.0059 52.8 98.3739 53C98.7419 53.2 99.0259 53.48 99.2259 53.84V50.36H100.234V59H99.3219L99.2379 58.004C99.1179 58.196 98.9579 58.38 98.7579 58.556C98.5579 58.732 98.3179 58.876 98.0379 58.988C97.7659 59.092 97.4459 59.144 97.0779 59.144ZM97.1979 58.268C97.5979 58.268 97.9459 58.172 98.2419 57.98C98.5459 57.788 98.7779 57.516 98.9379 57.164C99.1059 56.812 99.1899 56.4 99.1899 55.928C99.1899 55.448 99.1059 55.036 98.9379 54.692C98.7779 54.34 98.5459 54.068 98.2419 53.876C97.9459 53.676 97.5979 53.576 97.1979 53.576C96.8139 53.576 96.4699 53.676 96.1659 53.876C95.8699 54.068 95.6339 54.34 95.4579 54.692C95.2899 55.036 95.2059 55.448 95.2059 55.928C95.2059 56.4 95.2899 56.812 95.4579 57.164C95.6339 57.516 95.8699 57.788 96.1659 57.98C96.4699 58.172 96.8139 58.268 97.1979 58.268Z" fill="black"/>
<path d="M159.276 59V50.6H160.284V59H159.276ZM153.912 59V50.6H154.92V59H153.912ZM154.728 55.136V54.308H159.528V55.136H154.728ZM164 59.144C163.512 59.144 163.104 59.056 162.776 58.88C162.456 58.704 162.216 58.472 162.056 58.184C161.896 57.896 161.816 57.58 161.816 57.236C161.816 56.828 161.92 56.48 162.128 56.192C162.344 55.904 162.644 55.688 163.028 55.544C163.412 55.392 163.864 55.316 164.384 55.316H165.968C165.968 54.924 165.916 54.6 165.812 54.344C165.708 54.08 165.544 53.884 165.32 53.756C165.104 53.62 164.828 53.552 164.492 53.552C164.116 53.552 163.792 53.648 163.52 53.84C163.248 54.024 163.08 54.3 163.016 54.668H161.984C162.032 54.244 162.176 53.888 162.416 53.6C162.656 53.304 162.96 53.08 163.328 52.928C163.696 52.776 164.084 52.7 164.492 52.7C165.052 52.7 165.516 52.804 165.884 53.012C166.252 53.212 166.524 53.496 166.7 53.864C166.884 54.224 166.976 54.652 166.976 55.148V59H166.076L166.016 57.92C165.936 58.088 165.832 58.248 165.704 58.4C165.584 58.544 165.44 58.672 165.272 58.784C165.112 58.896 164.924 58.984 164.708 59.048C164.492 59.112 164.256 59.144 164 59.144ZM164.144 58.292C164.416 58.292 164.664 58.232 164.888 58.112C165.12 57.992 165.316 57.832 165.476 57.632C165.636 57.432 165.756 57.208 165.836 56.96C165.924 56.704 165.968 56.44 165.968 56.168V56.096H164.468C164.084 56.096 163.772 56.144 163.532 56.24C163.3 56.328 163.132 56.456 163.028 56.624C162.924 56.792 162.872 56.98 162.872 57.188C162.872 57.412 162.92 57.608 163.016 57.776C163.112 57.936 163.256 58.064 163.448 58.16C163.64 58.248 163.872 58.292 164.144 58.292ZM168.582 59V52.844H169.494L169.578 53.996C169.714 53.716 169.89 53.48 170.106 53.288C170.33 53.096 170.598 52.952 170.91 52.856C171.222 52.752 171.574 52.7 171.966 52.7V53.756H171.498C171.25 53.756 171.01 53.792 170.778 53.864C170.554 53.928 170.35 54.036 170.166 54.188C169.99 54.332 169.85 54.532 169.746 54.788C169.642 55.044 169.59 55.364 169.59 55.748V59H168.582ZM175.547 59.144C174.971 59.144 174.463 59.004 174.023 58.724C173.591 58.444 173.251 58.06 173.003 57.572C172.763 57.084 172.643 56.532 172.643 55.916C172.643 55.292 172.763 54.74 173.003 54.26C173.251 53.78 173.591 53.4 174.023 53.12C174.463 52.84 174.975 52.7 175.559 52.7C176.047 52.7 176.475 52.8 176.843 53C177.211 53.2 177.495 53.48 177.695 53.84V50.36H178.703V59H177.791L177.707 58.004C177.587 58.196 177.427 58.38 177.227 58.556C177.027 58.732 176.787 58.876 176.507 58.988C176.235 59.092 175.915 59.144 175.547 59.144ZM175.667 58.268C176.067 58.268 176.415 58.172 176.711 57.98C177.015 57.788 177.247 57.516 177.407 57.164C177.575 56.812 177.659 56.4 177.659 55.928C177.659 55.448 177.575 55.036 177.407 54.692C177.247 54.34 177.015 54.068 176.711 53.876C176.415 53.676 176.067 53.576 175.667 53.576C175.283 53.576 174.939 53.676 174.635 53.876C174.339 54.068 174.103 54.34 173.927 54.692C173.759 55.036 173.675 55.448 173.675 55.928C173.675 56.4 173.759 56.812 173.927 57.164C174.103 57.516 174.339 57.788 174.635 57.98C174.939 58.172 175.283 58.268 175.667 58.268Z" fill="black"/>
<path d="M234.868 59V51.428H232.36V50.6H238.384V51.428H235.876V59H234.868ZM241.212 59.144C240.636 59.144 240.124 59.012 239.676 58.748C239.228 58.484 238.876 58.112 238.62 57.632C238.372 57.144 238.248 56.576 238.248 55.928C238.248 55.272 238.376 54.704 238.632 54.224C238.888 53.744 239.24 53.372 239.688 53.108C240.144 52.836 240.66 52.7 241.236 52.7C241.812 52.7 242.324 52.836 242.772 53.108C243.22 53.372 243.568 53.744 243.816 54.224C244.072 54.704 244.2 55.272 244.2 55.928C244.2 56.576 244.072 57.144 243.816 57.632C243.56 58.112 243.204 58.484 242.748 58.748C242.3 59.012 241.788 59.144 241.212 59.144ZM241.212 58.28C241.572 58.28 241.9 58.192 242.196 58.016C242.492 57.84 242.728 57.576 242.904 57.224C243.08 56.872 243.168 56.44 243.168 55.928C243.168 55.4 243.08 54.964 242.904 54.62C242.736 54.268 242.504 54.004 242.208 53.828C241.912 53.652 241.588 53.564 241.236 53.564C240.884 53.564 240.56 53.652 240.264 53.828C239.968 54.004 239.728 54.268 239.544 54.62C239.368 54.964 239.28 55.4 239.28 55.928C239.28 56.44 239.368 56.872 239.544 57.224C239.72 57.576 239.952 57.84 240.24 58.016C240.536 58.192 240.86 58.28 241.212 58.28ZM247.869 59.144C247.405 59.144 246.997 59.056 246.645 58.88C246.301 58.696 246.033 58.416 245.841 58.04C245.657 57.664 245.565 57.192 245.565 56.624V52.844H246.573V56.516C246.573 57.108 246.705 57.552 246.969 57.848C247.241 58.136 247.613 58.28 248.085 58.28C248.421 58.28 248.721 58.204 248.985 58.052C249.249 57.892 249.457 57.66 249.609 57.356C249.769 57.052 249.849 56.684 249.849 56.252V52.844H250.857V59H249.945L249.885 57.968C249.701 58.336 249.433 58.624 249.081 58.832C248.729 59.04 248.325 59.144 247.869 59.144ZM254.963 61.784C254.411 61.784 253.923 61.712 253.499 61.568C253.075 61.432 252.747 61.22 252.515 60.932C252.283 60.644 252.167 60.288 252.167 59.864C252.167 59.672 252.203 59.472 252.275 59.264C252.355 59.056 252.487 58.852 252.671 58.652C252.863 58.452 253.131 58.272 253.475 58.112L254.195 58.52C253.763 58.696 253.479 58.896 253.343 59.12C253.215 59.352 253.151 59.568 253.151 59.768C253.151 60.032 253.227 60.252 253.379 60.428C253.531 60.604 253.743 60.736 254.015 60.824C254.295 60.912 254.611 60.956 254.963 60.956C255.315 60.956 255.615 60.908 255.863 60.812C256.119 60.716 256.315 60.58 256.451 60.404C256.587 60.236 256.655 60.032 256.655 59.792C256.655 59.496 256.551 59.252 256.343 59.06C256.135 58.876 255.731 58.768 255.131 58.736C254.651 58.704 254.247 58.66 253.919 58.604C253.599 58.548 253.335 58.484 253.127 58.412C252.919 58.332 252.743 58.244 252.599 58.148C252.463 58.052 252.339 57.952 252.227 57.848V57.572L253.403 56.42L254.303 56.732L253.067 57.812L253.223 57.368C253.311 57.432 253.395 57.492 253.475 57.548C253.555 57.604 253.663 57.656 253.799 57.704C253.935 57.744 254.127 57.784 254.375 57.824C254.623 57.856 254.951 57.888 255.359 57.92C255.919 57.96 256.367 58.056 256.703 58.208C257.039 58.36 257.279 58.568 257.423 58.832C257.575 59.088 257.651 59.396 257.651 59.756C257.651 60.1 257.555 60.424 257.363 60.728C257.179 61.04 256.887 61.292 256.487 61.484C256.095 61.684 255.587 61.784 254.963 61.784ZM254.951 57.08C254.447 57.08 254.015 56.984 253.655 56.792C253.303 56.592 253.035 56.328 252.851 56C252.667 55.672 252.575 55.304 252.575 54.896C252.575 54.48 252.667 54.112 252.851 53.792C253.043 53.464 253.315 53.2 253.667 53C254.019 52.8 254.447 52.7 254.951 52.7C255.463 52.7 255.895 52.8 256.247 53C256.599 53.2 256.867 53.464 257.051 53.792C257.235 54.112 257.327 54.48 257.327 54.896C257.327 55.304 257.235 55.672 257.051 56C256.867 56.328 256.599 56.592 256.247 56.792C255.895 56.984 255.463 57.08 254.951 57.08ZM254.951 56.252C255.391 56.252 255.735 56.136 255.983 55.904C256.231 55.672 256.355 55.336 256.355 54.896C256.355 54.448 256.231 54.112 255.983 53.888C255.735 53.656 255.391 53.54 254.951 53.54C254.527 53.54 254.183 53.656 253.919 53.888C253.655 54.112 253.523 54.448 253.523 54.896C253.523 55.336 253.651 55.672 253.907 55.904C254.171 56.136 254.519 56.252 254.951 56.252ZM255.959 53.696L255.659 52.844H258.131V53.6L255.959 53.696ZM259.324 59V50.36H260.332V53.864C260.54 53.504 260.824 53.22 261.184 53.012C261.544 52.804 261.936 52.7 262.36 52.7C262.84 52.7 263.248 52.792 263.584 52.976C263.928 53.16 264.192 53.444 264.376 53.828C264.56 54.204 264.652 54.68 264.652 55.256V59H263.656V55.364C263.656 54.772 263.524 54.324 263.26 54.02C262.996 53.716 262.624 53.564 262.144 53.564C261.816 53.564 261.512 53.648 261.232 53.816C260.96 53.976 260.74 54.212 260.572 54.524C260.412 54.828 260.332 55.204 260.332 55.652V59H259.324Z" fill="black"/>
<path d="M322.588 59.144C321.972 59.144 321.436 59.032 320.98 58.808C320.524 58.584 320.172 58.272 319.924 57.872C319.676 57.472 319.552 57.008 319.552 56.48H320.608C320.608 56.808 320.684 57.112 320.836 57.392C320.988 57.664 321.208 57.884 321.496 58.052C321.792 58.212 322.156 58.292 322.588 58.292C322.964 58.292 323.284 58.232 323.548 58.112C323.82 57.984 324.024 57.812 324.16 57.596C324.304 57.38 324.376 57.136 324.376 56.864C324.376 56.544 324.308 56.284 324.172 56.084C324.036 55.876 323.848 55.708 323.608 55.58C323.376 55.452 323.104 55.34 322.792 55.244C322.48 55.14 322.152 55.028 321.808 54.908C321.128 54.684 320.628 54.404 320.308 54.068C319.996 53.732 319.84 53.296 319.84 52.76C319.84 52.304 319.944 51.904 320.152 51.56C320.368 51.216 320.672 50.948 321.064 50.756C321.464 50.556 321.936 50.456 322.48 50.456C323.016 50.456 323.48 50.556 323.872 50.756C324.272 50.956 324.584 51.232 324.808 51.584C325.032 51.928 325.144 52.328 325.144 52.784H324.088C324.088 52.552 324.028 52.324 323.908 52.1C323.788 51.876 323.604 51.692 323.356 51.548C323.116 51.396 322.812 51.32 322.444 51.32C322.14 51.312 321.868 51.364 321.628 51.476C321.396 51.58 321.212 51.732 321.076 51.932C320.948 52.132 320.884 52.376 320.884 52.664C320.884 52.936 320.94 53.156 321.052 53.324C321.172 53.492 321.34 53.636 321.556 53.756C321.78 53.868 322.04 53.972 322.336 54.068C322.632 54.164 322.96 54.272 323.32 54.392C323.728 54.528 324.088 54.696 324.4 54.896C324.72 55.088 324.968 55.336 325.144 55.64C325.328 55.944 325.42 56.332 325.42 56.804C325.42 57.204 325.312 57.584 325.096 57.944C324.888 58.296 324.576 58.584 324.16 58.808C323.744 59.032 323.22 59.144 322.588 59.144ZM326.824 61.64V52.844H327.736L327.832 53.828C327.96 53.628 328.12 53.444 328.312 53.276C328.512 53.108 328.752 52.972 329.032 52.868C329.312 52.756 329.632 52.7 329.992 52.7C330.568 52.7 331.072 52.844 331.504 53.132C331.936 53.412 332.272 53.796 332.512 54.284C332.76 54.764 332.884 55.316 332.884 55.94C332.884 56.556 332.76 57.108 332.512 57.596C332.272 58.076 331.932 58.456 331.492 58.736C331.06 59.008 330.556 59.144 329.98 59.144C329.492 59.144 329.06 59.044 328.684 58.844C328.316 58.644 328.032 58.364 327.832 58.004V61.64H326.824ZM329.86 58.268C330.252 58.268 330.596 58.172 330.892 57.98C331.188 57.788 331.42 57.516 331.588 57.164C331.764 56.812 331.852 56.4 331.852 55.928C331.852 55.448 331.764 55.036 331.588 54.692C331.42 54.34 331.188 54.068 330.892 53.876C330.596 53.676 330.252 53.576 329.86 53.576C329.46 53.576 329.108 53.676 328.804 53.876C328.508 54.068 328.276 54.34 328.108 54.692C327.948 55.036 327.868 55.448 327.868 55.928C327.868 56.4 327.948 56.812 328.108 57.164C328.276 57.516 328.508 57.788 328.804 57.98C329.108 58.172 329.46 58.268 329.86 58.268ZM336.964 59.144C336.404 59.144 335.904 59.012 335.464 58.748C335.032 58.476 334.692 58.1 334.444 57.62C334.196 57.132 334.072 56.568 334.072 55.928C334.072 55.28 334.196 54.716 334.444 54.236C334.692 53.748 335.032 53.372 335.464 53.108C335.904 52.836 336.412 52.7 336.988 52.7C337.588 52.7 338.092 52.836 338.5 53.108C338.916 53.372 339.232 53.724 339.448 54.164C339.664 54.604 339.772 55.084 339.772 55.604C339.772 55.684 339.772 55.768 339.772 55.856C339.772 55.944 339.768 56.044 339.76 56.156H334.828V55.376H338.776C338.76 54.792 338.58 54.344 338.236 54.032C337.9 53.712 337.476 53.552 336.964 53.552C336.628 53.552 336.316 53.632 336.028 53.792C335.74 53.952 335.504 54.188 335.32 54.5C335.144 54.804 335.056 55.188 335.056 55.652V55.988C335.056 56.492 335.144 56.916 335.32 57.26C335.504 57.604 335.74 57.864 336.028 58.04C336.316 58.208 336.628 58.292 336.964 58.292C337.404 58.292 337.756 58.204 338.02 58.028C338.284 57.844 338.48 57.588 338.608 57.26H339.604C339.5 57.62 339.328 57.944 339.088 58.232C338.856 58.512 338.56 58.736 338.2 58.904C337.848 59.064 337.436 59.144 336.964 59.144ZM343.869 59.144C343.293 59.144 342.777 59.012 342.321 58.748C341.873 58.476 341.521 58.1 341.265 57.62C341.009 57.132 340.881 56.568 340.881 55.928C340.881 55.28 341.009 54.716 341.265 54.236C341.521 53.756 341.873 53.38 342.321 53.108C342.777 52.836 343.293 52.7 343.869 52.7C344.581 52.7 345.177 52.892 345.657 53.276C346.145 53.652 346.453 54.156 346.581 54.788H345.549C345.469 54.404 345.269 54.104 344.949 53.888C344.637 53.672 344.273 53.564 343.857 53.564C343.497 53.564 343.169 53.656 342.873 53.84C342.585 54.016 342.353 54.28 342.177 54.632C342.001 54.976 341.913 55.408 341.913 55.928C341.913 56.312 341.961 56.652 342.057 56.948C342.161 57.244 342.301 57.492 342.477 57.692C342.653 57.892 342.857 58.044 343.089 58.148C343.329 58.244 343.585 58.292 343.857 58.292C344.137 58.292 344.393 58.244 344.625 58.148C344.865 58.052 345.065 57.912 345.225 57.728C345.385 57.544 345.493 57.324 345.549 57.068H346.581C346.453 57.684 346.145 58.184 345.657 58.568C345.177 58.952 344.581 59.144 343.869 59.144ZM348.132 59V52.844H349.14V59H348.132ZM348.636 51.596C348.436 51.596 348.268 51.532 348.132 51.404C348.004 51.268 347.94 51.1 347.94 50.9C347.94 50.7 348.004 50.54 348.132 50.42C348.268 50.292 348.436 50.228 348.636 50.228C348.828 50.228 348.992 50.292 349.128 50.42C349.264 50.54 349.332 50.7 349.332 50.9C349.332 51.1 349.264 51.268 349.128 51.404C348.992 51.532 348.828 51.596 348.636 51.596ZM352.886 59.144C352.398 59.144 351.99 59.056 351.662 58.88C351.342 58.704 351.102 58.472 350.942 58.184C350.782 57.896 350.702 57.58 350.702 57.236C350.702 56.828 350.806 56.48 351.014 56.192C351.23 55.904 351.53 55.688 351.914 55.544C352.298 55.392 352.75 55.316 353.27 55.316H354.854C354.854 54.924 354.802 54.6 354.698 54.344C354.594 54.08 354.43 53.884 354.206 53.756C353.99 53.62 353.714 53.552 353.378 53.552C353.002 53.552 352.678 53.648 352.406 53.84C352.134 54.024 351.966 54.3 351.902 54.668H350.87C350.918 54.244 351.062 53.888 351.302 53.6C351.542 53.304 351.846 53.08 352.214 52.928C352.582 52.776 352.97 52.7 353.378 52.7C353.938 52.7 354.402 52.804 354.77 53.012C355.138 53.212 355.41 53.496 355.586 53.864C355.77 54.224 355.862 54.652 355.862 55.148V59H354.962L354.902 57.92C354.822 58.088 354.718 58.248 354.59 58.4C354.47 58.544 354.326 58.672 354.158 58.784C353.998 58.896 353.81 58.984 353.594 59.048C353.378 59.112 353.142 59.144 352.886 59.144ZM353.03 58.292C353.302 58.292 353.55 58.232 353.774 58.112C354.006 57.992 354.202 57.832 354.362 57.632C354.522 57.432 354.642 57.208 354.722 56.96C354.81 56.704 354.854 56.44 354.854 56.168V56.096H353.354C352.97 56.096 352.658 56.144 352.418 56.24C352.186 56.328 352.018 56.456 351.914 56.624C351.81 56.792 351.758 56.98 351.758 57.188C351.758 57.412 351.806 57.608 351.902 57.776C351.998 57.936 352.142 58.064 352.334 58.16C352.526 58.248 352.758 58.292 353.03 58.292ZM357.469 59V50.36H358.477V59H357.469Z" fill="black"/>
</svg>
